<mxfile host="app.diagrams.net" modified="2022-01-16T18:16:15.652Z" agent="5.0 (X11; Linux x86_64) AppleWebKit/537.36 (KHTML, like Gecko) Chrome/97.0.4692.71 Safari/537.36" etag="7uRD_4JGs_8Sg5HO38vo" version="16.2.4" type="github">
  <diagram id="SAvahVIKU21R7zALGNvX" name="BuzzBlogApp Arch">
    <mxGraphModel dx="1422" dy="797" grid="1" gridSize="10" guides="1" tooltips="1" connect="1" arrows="1" fold="1" page="1" pageScale="1" pageWidth="850" pageHeight="1100" math="0" shadow="0">
      <root>
        <mxCell id="0" />
        <mxCell id="1" parent="0" />
        <mxCell id="JQz8_CWenTlknB-j0lrb-37" value="" style="rounded=0;whiteSpace=wrap;html=1;" parent="1" vertex="1">
          <mxGeometry x="50" y="320" width="210" height="230" as="geometry" />
        </mxCell>
        <mxCell id="JQz8_CWenTlknB-j0lrb-3" value="" style="rounded=0;whiteSpace=wrap;html=1;" parent="1" vertex="1">
          <mxGeometry x="340" y="160" width="670" height="560" as="geometry" />
        </mxCell>
        <mxCell id="JQz8_CWenTlknB-j0lrb-1" value="" style="sketch=0;aspect=fixed;html=1;points=[];align=center;image;fontSize=12;image=img/lib/mscae/Docker.svg;" parent="1" vertex="1">
          <mxGeometry x="350" y="170" width="50" height="41" as="geometry" />
        </mxCell>
        <mxCell id="JQz8_CWenTlknB-j0lrb-4" value="Server-side Containers" style="text;html=1;strokeColor=none;fillColor=none;align=center;verticalAlign=middle;whiteSpace=wrap;rounded=0;" parent="1" vertex="1">
          <mxGeometry x="410" y="175.5" width="140" height="24.5" as="geometry" />
        </mxCell>
        <mxCell id="JQz8_CWenTlknB-j0lrb-5" value="&lt;b&gt;Follow Service&lt;/b&gt; - Deals with all Follow related data" style="rounded=1;whiteSpace=wrap;html=1;" parent="1" vertex="1">
          <mxGeometry x="720" y="490" width="120" height="60" as="geometry" />
        </mxCell>
        <mxCell id="JQz8_CWenTlknB-j0lrb-6" value="&lt;b&gt;Post Service - &lt;/b&gt;Backend for all post-related APIs" style="rounded=1;whiteSpace=wrap;html=1;" parent="1" vertex="1">
          <mxGeometry x="720" y="330" width="120" height="60" as="geometry" />
        </mxCell>
        <mxCell id="JQz8_CWenTlknB-j0lrb-7" value="&lt;b&gt;Loadgen Node&lt;/b&gt;&amp;nbsp;- Responsible for generating the workload OR Emulates the client" style="rounded=1;whiteSpace=wrap;html=1;" parent="1" vertex="1">
          <mxGeometry x="80" y="400" width="150" height="90" as="geometry" />
        </mxCell>
        <mxCell id="JQz8_CWenTlknB-j0lrb-8" value="&lt;b&gt;Like Service&lt;/b&gt;&amp;nbsp;- Backend for all like-related APIs" style="rounded=1;whiteSpace=wrap;html=1;" parent="1" vertex="1">
          <mxGeometry x="720" y="410" width="120" height="60" as="geometry" />
        </mxCell>
        <mxCell id="JQz8_CWenTlknB-j0lrb-9" value="&lt;b&gt;Post Database&lt;/b&gt;&amp;nbsp;- Stores all tuples that relate an account with a post." style="rounded=1;whiteSpace=wrap;html=1;" parent="1" vertex="1">
          <mxGeometry x="860" y="330" width="120" height="60" as="geometry" />
        </mxCell>
        <mxCell id="JQz8_CWenTlknB-j0lrb-10" value="&lt;b&gt;Account Database&lt;/b&gt; - Stores users&#39; account details" style="rounded=1;whiteSpace=wrap;html=1;" parent="1" vertex="1">
          <mxGeometry x="860" y="250" width="120" height="60" as="geometry" />
        </mxCell>
        <mxCell id="JQz8_CWenTlknB-j0lrb-11" value="&lt;b&gt;Uniquepair Database - &lt;/b&gt;Stores all unique pairs" style="rounded=1;whiteSpace=wrap;html=1;" parent="1" vertex="1">
          <mxGeometry x="860" y="570" width="120" height="60" as="geometry" />
        </mxCell>
        <mxCell id="JQz8_CWenTlknB-j0lrb-12" value="&lt;b&gt;Uniquepair Service&lt;/b&gt;&amp;nbsp;- Backend for all uniquepair-related APIs" style="rounded=1;whiteSpace=wrap;html=1;" parent="1" vertex="1">
          <mxGeometry x="720" y="570" width="120" height="60" as="geometry" />
        </mxCell>
        <mxCell id="JQz8_CWenTlknB-j0lrb-13" value="&lt;b&gt;Account Service&lt;/b&gt;&amp;nbsp;- Backend for APIs related to account creation" style="rounded=1;whiteSpace=wrap;html=1;" parent="1" vertex="1">
          <mxGeometry x="720" y="250" width="120" height="60" as="geometry" />
        </mxCell>
        <mxCell id="JQz8_CWenTlknB-j0lrb-14" value="&lt;b&gt;Gateways&lt;/b&gt;&amp;nbsp;- Server endpoints that accepts and route client connections to appropriate services" style="rounded=1;whiteSpace=wrap;html=1;" parent="1" vertex="1">
          <mxGeometry x="530" y="400" width="150" height="90" as="geometry" />
        </mxCell>
        <mxCell id="JQz8_CWenTlknB-j0lrb-15" value="&lt;b&gt;Load Balancer&lt;/b&gt;&amp;nbsp;- Ensures that client requests are not overwhelming one single gateway&lt;b&gt;&amp;nbsp;&lt;/b&gt;" style="rounded=1;whiteSpace=wrap;html=1;" parent="1" vertex="1">
          <mxGeometry x="345" y="400" width="160" height="90" as="geometry" />
        </mxCell>
        <mxCell id="JQz8_CWenTlknB-j0lrb-17" value="" style="endArrow=classic;startArrow=classic;html=1;rounded=0;exitX=1;exitY=0.5;exitDx=0;exitDy=0;entryX=0;entryY=0.5;entryDx=0;entryDy=0;" parent="1" source="JQz8_CWenTlknB-j0lrb-7" target="JQz8_CWenTlknB-j0lrb-15" edge="1">
          <mxGeometry width="50" height="50" relative="1" as="geometry">
            <mxPoint x="460" y="380" as="sourcePoint" />
            <mxPoint x="510" y="330" as="targetPoint" />
          </mxGeometry>
        </mxCell>
        <mxCell id="JQz8_CWenTlknB-j0lrb-18" value="" style="endArrow=classic;startArrow=classic;html=1;rounded=0;exitX=1;exitY=0.5;exitDx=0;exitDy=0;entryX=0;entryY=0.5;entryDx=0;entryDy=0;" parent="1" source="JQz8_CWenTlknB-j0lrb-15" target="JQz8_CWenTlknB-j0lrb-14" edge="1">
          <mxGeometry width="50" height="50" relative="1" as="geometry">
            <mxPoint x="460" y="380" as="sourcePoint" />
            <mxPoint x="510" y="330" as="targetPoint" />
          </mxGeometry>
        </mxCell>
        <mxCell id="JQz8_CWenTlknB-j0lrb-19" value="" style="endArrow=classic;startArrow=classic;html=1;rounded=0;entryX=0;entryY=0.5;entryDx=0;entryDy=0;exitX=1;exitY=0.5;exitDx=0;exitDy=0;" parent="1" source="JQz8_CWenTlknB-j0lrb-14" target="JQz8_CWenTlknB-j0lrb-13" edge="1">
          <mxGeometry width="50" height="50" relative="1" as="geometry">
            <mxPoint x="460" y="380" as="sourcePoint" />
            <mxPoint x="510" y="330" as="targetPoint" />
          </mxGeometry>
        </mxCell>
        <mxCell id="JQz8_CWenTlknB-j0lrb-20" value="" style="endArrow=classic;startArrow=classic;html=1;rounded=0;entryX=0;entryY=0.5;entryDx=0;entryDy=0;exitX=1;exitY=0.5;exitDx=0;exitDy=0;" parent="1" source="JQz8_CWenTlknB-j0lrb-14" target="JQz8_CWenTlknB-j0lrb-6" edge="1">
          <mxGeometry width="50" height="50" relative="1" as="geometry">
            <mxPoint x="460" y="380" as="sourcePoint" />
            <mxPoint x="510" y="330" as="targetPoint" />
          </mxGeometry>
        </mxCell>
        <mxCell id="JQz8_CWenTlknB-j0lrb-21" value="" style="endArrow=classic;startArrow=classic;html=1;rounded=0;entryX=0;entryY=0.5;entryDx=0;entryDy=0;exitX=1;exitY=0.5;exitDx=0;exitDy=0;" parent="1" source="JQz8_CWenTlknB-j0lrb-14" target="JQz8_CWenTlknB-j0lrb-8" edge="1">
          <mxGeometry width="50" height="50" relative="1" as="geometry">
            <mxPoint x="460" y="380" as="sourcePoint" />
            <mxPoint x="510" y="330" as="targetPoint" />
          </mxGeometry>
        </mxCell>
        <mxCell id="JQz8_CWenTlknB-j0lrb-22" value="" style="endArrow=classic;startArrow=classic;html=1;rounded=0;entryX=0;entryY=0.5;entryDx=0;entryDy=0;exitX=1;exitY=0.5;exitDx=0;exitDy=0;" parent="1" source="JQz8_CWenTlknB-j0lrb-14" target="JQz8_CWenTlknB-j0lrb-5" edge="1">
          <mxGeometry width="50" height="50" relative="1" as="geometry">
            <mxPoint x="460" y="380" as="sourcePoint" />
            <mxPoint x="510" y="330" as="targetPoint" />
          </mxGeometry>
        </mxCell>
        <mxCell id="JQz8_CWenTlknB-j0lrb-23" value="" style="endArrow=classic;startArrow=classic;html=1;rounded=0;entryX=0;entryY=0.5;entryDx=0;entryDy=0;exitX=1;exitY=0.5;exitDx=0;exitDy=0;" parent="1" source="JQz8_CWenTlknB-j0lrb-14" target="JQz8_CWenTlknB-j0lrb-12" edge="1">
          <mxGeometry width="50" height="50" relative="1" as="geometry">
            <mxPoint x="460" y="380" as="sourcePoint" />
            <mxPoint x="510" y="330" as="targetPoint" />
          </mxGeometry>
        </mxCell>
        <mxCell id="JQz8_CWenTlknB-j0lrb-24" value="" style="endArrow=classic;startArrow=classic;html=1;rounded=0;entryX=0;entryY=0.5;entryDx=0;entryDy=0;exitX=1;exitY=0.5;exitDx=0;exitDy=0;" parent="1" source="JQz8_CWenTlknB-j0lrb-13" target="JQz8_CWenTlknB-j0lrb-10" edge="1">
          <mxGeometry width="50" height="50" relative="1" as="geometry">
            <mxPoint x="460" y="380" as="sourcePoint" />
            <mxPoint x="510" y="330" as="targetPoint" />
          </mxGeometry>
        </mxCell>
        <mxCell id="JQz8_CWenTlknB-j0lrb-25" value="" style="endArrow=classic;startArrow=classic;html=1;rounded=0;entryX=0;entryY=0.5;entryDx=0;entryDy=0;exitX=1;exitY=0.5;exitDx=0;exitDy=0;" parent="1" source="JQz8_CWenTlknB-j0lrb-6" target="JQz8_CWenTlknB-j0lrb-9" edge="1">
          <mxGeometry width="50" height="50" relative="1" as="geometry">
            <mxPoint x="850" y="290" as="sourcePoint" />
            <mxPoint x="870" y="290" as="targetPoint" />
          </mxGeometry>
        </mxCell>
        <mxCell id="JQz8_CWenTlknB-j0lrb-26" value="" style="endArrow=classic;startArrow=classic;html=1;rounded=0;entryX=0;entryY=0.5;entryDx=0;entryDy=0;exitX=1;exitY=0.5;exitDx=0;exitDy=0;" parent="1" source="JQz8_CWenTlknB-j0lrb-12" target="JQz8_CWenTlknB-j0lrb-11" edge="1">
          <mxGeometry width="50" height="50" relative="1" as="geometry">
            <mxPoint x="860" y="300" as="sourcePoint" />
            <mxPoint x="880" y="300" as="targetPoint" />
          </mxGeometry>
        </mxCell>
        <mxCell id="JQz8_CWenTlknB-j0lrb-27" value="" style="aspect=fixed;html=1;points=[];align=center;image;fontSize=12;image=img/lib/azure2/databases/Azure_Database_PostgreSQL_Server.svg;" parent="1" vertex="1">
          <mxGeometry x="980" y="590" width="15" height="20" as="geometry" />
        </mxCell>
        <mxCell id="JQz8_CWenTlknB-j0lrb-28" value="" style="aspect=fixed;html=1;points=[];align=center;image;fontSize=12;image=img/lib/azure2/databases/Azure_Database_PostgreSQL_Server.svg;" parent="1" vertex="1">
          <mxGeometry x="980" y="350" width="15" height="20" as="geometry" />
        </mxCell>
        <mxCell id="JQz8_CWenTlknB-j0lrb-29" value="" style="aspect=fixed;html=1;points=[];align=center;image;fontSize=12;image=img/lib/azure2/databases/Azure_Database_PostgreSQL_Server.svg;" parent="1" vertex="1">
          <mxGeometry x="980" y="270" width="15" height="20" as="geometry" />
        </mxCell>
        <mxCell id="JQz8_CWenTlknB-j0lrb-31" value="" style="shape=image;verticalLabelPosition=bottom;labelBackgroundColor=default;verticalAlign=top;aspect=fixed;imageAspect=0;image=https://cognitivewaves.files.wordpress.com/2021/05/apache-thrift.png;" parent="1" vertex="1">
          <mxGeometry x="840" y="510" width="35.71" height="20" as="geometry" />
        </mxCell>
        <mxCell id="JQz8_CWenTlknB-j0lrb-32" value="" style="shape=image;verticalLabelPosition=bottom;labelBackgroundColor=default;verticalAlign=top;aspect=fixed;imageAspect=0;image=https://deneli.us/content/images/2019/06/flask-2.png;" parent="1" vertex="1">
          <mxGeometry x="587.13" y="490" width="35.75" height="20" as="geometry" />
        </mxCell>
        <mxCell id="JQz8_CWenTlknB-j0lrb-33" value="" style="shape=image;verticalLabelPosition=bottom;labelBackgroundColor=default;verticalAlign=top;aspect=fixed;imageAspect=0;image=https://cognitivewaves.files.wordpress.com/2021/05/apache-thrift.png;" parent="1" vertex="1">
          <mxGeometry x="840" y="435" width="35.71" height="20" as="geometry" />
        </mxCell>
        <mxCell id="JQz8_CWenTlknB-j0lrb-34" value="" style="shape=image;verticalLabelPosition=bottom;labelBackgroundColor=default;verticalAlign=top;aspect=fixed;imageAspect=0;image=https://cognitivewaves.files.wordpress.com/2021/05/apache-thrift.png;" parent="1" vertex="1">
          <mxGeometry x="762.14" y="310" width="35.71" height="20" as="geometry" />
        </mxCell>
        <mxCell id="JQz8_CWenTlknB-j0lrb-35" value="" style="shape=image;verticalLabelPosition=bottom;labelBackgroundColor=default;verticalAlign=top;aspect=fixed;imageAspect=0;image=https://cognitivewaves.files.wordpress.com/2021/05/apache-thrift.png;" parent="1" vertex="1">
          <mxGeometry x="760" y="230" width="35.71" height="20" as="geometry" />
        </mxCell>
        <mxCell id="JQz8_CWenTlknB-j0lrb-36" value="" style="shape=image;verticalLabelPosition=bottom;labelBackgroundColor=default;verticalAlign=top;aspect=fixed;imageAspect=0;image=https://cognitivewaves.files.wordpress.com/2021/05/apache-thrift.png;" parent="1" vertex="1">
          <mxGeometry x="760" y="550" width="35.71" height="20" as="geometry" />
        </mxCell>
        <mxCell id="JQz8_CWenTlknB-j0lrb-38" value="" style="sketch=0;aspect=fixed;html=1;points=[];align=center;image;fontSize=12;image=img/lib/mscae/Docker.svg;" parent="1" vertex="1">
          <mxGeometry x="50" y="320" width="50" height="41" as="geometry" />
        </mxCell>
        <mxCell id="JQz8_CWenTlknB-j0lrb-39" value="Client-side Containers" style="text;html=1;strokeColor=none;fillColor=none;align=center;verticalAlign=middle;whiteSpace=wrap;rounded=0;" parent="1" vertex="1">
          <mxGeometry x="110" y="330" width="140" height="24.5" as="geometry" />
        </mxCell>
      </root>
    </mxGraphModel>
  </diagram>
</mxfile>
